<svg style="width: 16px; height: 16px" viewBox="0 0 16 16">
  <path d="M12.8907479,11.4765344 L14.363961,12.9497475 L12.9497475,14.363961 L11.4765344,12.8907479 C10.7536018,13.4055629 9.91165661,13.7640946 9,13.9170416 L9,16 L7,16 L7,13.9170416 C6.08834339,13.7640946 5.24639817,13.4055629 4.52346564,12.8907479 L3.05025253,14.363961 L1.63603897,12.9497475 L3.10925208,11.4765344 C2.59443708,10.7536018 2.23590544,9.91165661 2.08295844,9 L0,9 L0,7 L2.08295844,7 C2.23590544,6.08834339 2.59443708,5.24639817 3.10925208,4.52346564 L1.63603897,3.05025253 L3.05025253,1.63603897 L4.52346564,3.10925208 C5.24639817,2.59443708 6.08834339,2.23590544 7,2.08295844 L7,0 L9,0 L9,2.08295844 C9.91165661,2.23590544 10.7536018,2.59443708 11.4765344,3.10925208 L12.9497475,1.63603897 L14.363961,3.05025253 L12.8907479,4.52346564 C13.4055629,5.24639817 13.7640946,6.08834339 13.9170416,7 L16,7 L16,9 L13.9170416,9 C13.7640946,9.91165661 13.4055629,10.7536018 12.8907479,11.4765344 L12.8907479,11.4765344 Z M8,12 C10.209139,12 12,10.209139 12,8 C12,5.790861 10.209139,4 8,4 C5.790861,4 4,5.790861 4,8 C4,10.209139 5.790861,12 8,12 Z" id="path-1"></path>
</svg>