<svg style="width: 124px; height: 41px" viewBox="40 0 124 41">
    <path d="M154.392392,35.1345104 C155.001488,35.1345104 155.583891,35.3711115 156.04132,35.7654467 C156.098347,35.816407 156.1032,35.8977007 156.051027,35.9535143 L155.631211,36.392743 C155.574184,36.4461299 155.514731,36.4461299 155.456491,36.392743 C155.165289,36.1330885 154.804927,36.0008345 154.432432,36.0008345 C153.589162,36.0008345 152.923039,36.7227712 152.923039,37.5660419 C152.923039,38.4044592 153.589162,39.1130492 154.439712,39.1130492 C154.819488,39.1130492 155.108262,38.9989953 155.247796,38.944395 L155.247796,38.3704857 L154.705434,38.3704857 C154.63142,38.3704857 154.579246,38.3158854 154.579246,38.2491518 L154.579246,37.7140692 C154.579246,37.6376289 154.63142,37.5854553 154.705434,37.5854553 L156.00128,37.5854553 C156.07044,37.5854553 156.12504,37.6449089 156.12504,37.7140692 L156.12504,39.4430774 C156.12504,39.4976776 156.09956,39.5304378 156.07044,39.5522779 C156.07044,39.5522779 155.373983,39.9878666 154.392392,39.9878666 C153.050439,39.9878666 151.972994,38.9225549 151.972994,37.5733219 C151.972994,36.2240889 153.050439,35.1345104 154.392392,35.1345104 Z M144.382345,35.258271 C144.382345,35.1891107 144.444225,35.1345104 144.509746,35.1345104 L144.680826,35.1345104 L147.49092,38.1205378 L147.495773,38.1205378 L147.495773,35.3310713 C147.495773,35.2631244 147.550373,35.2036707 147.6256,35.2036707 L148.24683,35.2036707 C148.313564,35.2036707 148.373017,35.2643377 148.373017,35.3310713 L148.373017,39.8762394 C148.373017,39.9441864 148.313564,40 148.24683,40 L148.083029,40 L145.258376,36.8974921 L145.251096,36.8974921 L145.251096,39.8034391 C145.251096,39.8713861 145.201349,39.9308397 145.124909,39.9308397 L144.508532,39.9308397 C144.441799,39.9308397 144.381132,39.8701727 144.381132,39.8034391 L144.381132,35.258271 L144.382345,35.258271 Z M139.566602,35.3310713 C139.566602,35.2631244 139.626056,35.2036707 139.69279,35.2036707 L140.321299,35.2036707 C140.39046,35.2036707 140.451126,35.2643377 140.451126,35.3310713 L140.451126,39.8034391 C140.451126,39.8713861 140.389246,39.9308397 140.321299,39.9308397 L139.69279,39.9308397 C139.626056,39.9308397 139.566602,39.8701727 139.566602,39.8034391 L139.566602,35.3310713 Z M131.639858,35.258271 C131.639858,35.1891107 131.701739,35.1345104 131.769686,35.1345104 L131.935913,35.1345104 L134.748433,38.1205378 L134.755713,38.1205378 L134.755713,35.3310713 C134.755713,35.2631244 134.807887,35.2036707 134.8819,35.2036707 L135.505557,35.2036707 C135.57229,35.2036707 135.632957,35.2643377 135.632957,35.3310713 L135.632957,39.8762394 C135.632957,39.9441864 135.571077,40 135.505557,40 L135.341756,40 L132.521956,36.8974921 L132.509822,36.8974921 L132.509822,39.8034391 C132.509822,39.8713861 132.457649,39.9308397 132.383635,39.9308397 L131.769686,39.9308397 C131.700525,39.9308397 131.639858,39.8701727 131.639858,39.8034391 L131.639858,35.258271 L131.639858,35.258271 Z M124.437478,35.3310713 C124.437478,35.2631244 124.492078,35.2036707 124.567305,35.2036707 L126.496514,35.2036707 C127.307025,35.2036707 127.968294,35.8515938 127.968294,36.6560376 C127.968294,37.2772672 127.558186,37.7832296 126.97093,38.0186173 L127.897921,39.7342787 C127.945241,39.8240658 127.897921,39.9308397 127.78144,39.9308397 L127.075277,39.9308397 C127.013397,39.9308397 126.980636,39.8980795 126.96365,39.8701727 L126.065779,38.0792843 L125.314722,38.0792843 L125.314722,39.8022257 C125.314722,39.8701727 125.255268,39.9296263 125.188535,39.9296263 L124.567305,39.9296263 C124.490865,39.9296263 124.437478,39.8689594 124.437478,39.8022257 L124.437478,35.3310713 Z M126.423714,37.3573476 C126.781649,37.3573476 127.09469,37.0479461 127.09469,36.668171 C127.09469,36.310236 126.781649,36.0153946 126.423714,36.0153946 L125.322002,36.0153946 L125.322002,37.3573476 L126.423714,37.3573476 Z M116.640561,39.7561189 L118.742064,35.2097374 C118.761478,35.1696972 118.794238,35.1345104 118.856118,35.1345104 L118.922852,35.1345104 C118.992012,35.1345104 119.019919,35.1684839 119.039332,35.2097374 L121.117782,39.7561189 C121.160249,39.8434793 121.108075,39.932053 121.003728,39.932053 L120.418899,39.932053 C120.316978,39.932053 120.269658,39.8920128 120.224765,39.7973724 L119.893523,39.0681556 L117.8721,39.0681556 L117.539645,39.7973724 C117.516592,39.8665327 117.454712,39.932053 117.343084,39.932053 L116.758255,39.932053 C116.657548,39.9308397 116.600521,39.8434793 116.640561,39.7561189 Z M119.561068,38.3170987 L118.885238,36.8307584 L118.863398,36.8307584 L118.199702,38.3170987 L119.561068,38.3170987 Z M110.581146,35.3310713 C110.581146,35.2631244 110.633319,35.2036707 110.708546,35.2036707 L113.457973,35.2036707 C113.534413,35.2036707 113.585373,35.2643377 113.585373,35.3310713 L113.585373,35.8843539 C113.585373,35.9535143 113.5332,36.0141812 113.457973,36.0141812 L111.455963,36.0141812 L111.455963,37.1195331 L113.129158,37.1195331 C113.195891,37.1195331 113.256558,37.1814134 113.256558,37.2469337 L113.256558,37.8087097 C113.256558,37.88151 113.194678,37.938537 113.129158,37.938537 L111.455963,37.938537 L111.455963,39.1191159 L113.457973,39.1191159 C113.534413,39.1191159 113.585373,39.1809961 113.585373,39.2465165 L113.585373,39.8010124 C113.585373,39.8689594 113.5332,39.928413 113.457973,39.928413 L110.708546,39.928413 C110.632106,39.928413 110.581146,39.867746 110.581146,39.8010124 L110.581146,35.3310713 Z M104.464704,35.3310713 C104.464704,35.2631244 104.521731,35.2036707 104.594531,35.2036707 L105.218187,35.2036707 C105.282494,35.2036707 105.344374,35.2643377 105.344374,35.3310713 L105.344374,39.1203292 L107.069743,39.1203292 C107.143756,39.1203292 107.197143,39.1822095 107.197143,39.2477298 L107.197143,39.8022257 C107.197143,39.8701727 107.142543,39.9296263 107.069743,39.9296263 L104.595744,39.9296263 C104.522944,39.9296263 104.465917,39.8689594 104.465917,39.8022257 L104.465917,35.3310713 L104.464704,35.3310713 Z M64.6477694,5.4598773 C64.6477694,7.21315223 63.0983355,7.62083415 62.5292795,7.62083415 C61.9153299,7.62083415 61.3462739,7.21315223 61.303807,6.72538993 C61.1800464,4.48313937 60.8560849,2.28456901 57.5594427,2.28456901 C54.014066,2.28456901 50.471116,5.54602437 49.0430159,7.45824672 C45.0098769,12.7945119 43.5029098,18.7835534 43.5029098,23.4682555 C43.5029098,29.2934962 45.7039069,32.3074304 49.3706175,32.3074304 C52.2219642,32.3074304 54.504255,31.0443445 56.9491332,27.9090764 C57.274308,27.9090764 57.5958429,28.1129173 57.6383098,28.4781324 C55.9299284,31.862135 52.3845517,34.34584 48.6778009,34.34584 C43.3815759,34.34584 40,29.6599246 40,23.8759374 C40,15.6458586 44.3146337,8.55753189 47.9049039,5.37979693 C50.8763712,2.69103759 54.2992007,1.02148306 58.1685389,1.02148306 C61.303807,1.02148306 64.6477694,2.56849035 64.6477694,5.4598773 Z M81.5920492,26.4821897 C81.2668744,27.4201007 81.3057012,27.8277827 81.75585,27.8277827 C82.6512942,27.8277827 84.5659433,25.8306266 86.4405521,23.7121366 C86.848234,23.6733098 87.0945418,23.8759374 87.0945418,24.282406 C86.0304435,26.3196022 83.4642314,29.7011782 80.0850821,29.7011782 C78.8644631,29.7011782 78.4943947,29.1296955 78.4943947,28.4781324 C78.4943947,27.828996 78.7006623,27.0924992 79.3898389,25.0152627 L85.8690694,5.74622532 C86.848234,2.89487855 86.4405521,2.48719663 85.8290292,2.20084862 L85.0949591,1.87688709 C84.8935448,1.71308632 84.8935448,1.34787127 85.0949591,1.22532402 C85.8290292,0.940189346 88.3564144,0.166079033 90.2273833,0.00349160059 L90.4336509,0.248586088 C89.9022084,1.71308632 89.4957398,2.85362503 88.0263862,7.25319242 L81.5920492,26.4821897 Z M94.9958057,16.0535405 C95.2372602,15.2782169 95.2372602,14.8729616 94.7094577,14.8729616 C93.9365607,14.8729616 92.1832858,16.3398886 90.9226265,17.7243084 C90.5525581,17.7243084 90.2710635,17.3590934 90.3111037,17.0327051 C91.6118031,15.1981365 94.3442426,12.5105905 96.7454406,12.5105905 C97.6845651,12.5105905 98.6200495,13.6923827 98.0060999,15.1993498 L94.5031901,24.2836193 C94.3017758,24.8538887 94.0979348,25.6668258 94.0979348,26.1994817 C94.0979348,26.8910849 94.4255364,27.6651952 95.2809404,27.6651952 C96.2164248,27.6651952 97.888406,26.7272841 99.7193346,24.651261 C102.084132,21.9625017 103.222244,18.7847667 103.222244,16.8701177 C103.222244,15.8933798 103.142164,14.9142152 102.857029,13.9787308 C102.93711,13.1209001 103.589886,12.5105905 104.363997,12.5105905 C105.664696,12.5105905 105.954684,14.018771 105.954684,15.0367624 C105.954684,18.0094431 102.89707,23.7970703 99.3953731,26.7272841 C96.2977185,29.2947096 94.0154278,29.7023915 93.0423299,29.7023915 C91.9806582,29.7023915 91.1652943,28.4793457 91.1652943,27.2575133 C91.1652943,26.3620691 91.5729763,24.9363957 92.1844991,23.3457082 L94.9958057,16.0535405 Z M134.106577,16.3799287 L132.353302,21.5123529 L132.557143,21.5123529 C133.782615,19.2300622 135.777344,15.9722468 136.836589,14.6266538 C137.772074,13.4048214 138.791279,12.5081638 139.810483,12.5081638 C141.234944,12.5081638 141.438784,13.893797 141.438784,14.5028932 C141.438784,15.1156295 141.073569,16.294995 140.585807,16.9477714 C140.093191,17.5592943 139.444055,17.6005478 139.280254,16.7463571 C139.07884,15.6871121 138.832532,15.1544563 138.42485,15.1544563 C138.057209,15.1544563 137.609486,15.5633516 136.997964,16.3787154 C134.511832,19.5540237 132.231968,24.5262871 130.073438,29.2097758 C129.912064,29.5385907 129.708223,29.6987515 129.381834,29.6987515 C128.931686,29.6987515 127.753533,29.5373774 128.038668,28.6395065 C128.567684,27.0099921 131.133896,19.8003315 132.233181,15.8072327 C132.354515,15.3582973 132.275648,14.9518287 131.906793,14.9518287 C130.849975,14.9518287 129.750689,16.0923674 129.015406,17.0703187 C128.607724,17.1528257 128.323803,16.9065179 128.361416,16.4187556 C129.666969,14.2189719 131.21519,12.5069505 133.169879,12.5069505 C135.205862,12.5093772 134.471792,15.2782169 134.106577,16.3799287 Z M158.639079,5.37979693 C159.452016,3.09993285 159.574563,2.36828941 159.006721,2.00064767 L158.065169,1.34787127 C157.987516,1.18285716 158.027556,0.938976007 158.191357,0.776388575 C158.96668,0.490040559 161.248971,-0.0389752661 162.997393,0.00227826154 L163.161193,0.247372749 C162.42591,2.52845016 161.81924,4.07667079 160.593768,7.45824672 C156.563056,18.5797124 154.64598,25.0965565 154.283192,26.3196022 C154.114538,26.8510447 154.159431,27.2563 154.524646,27.2563 C155.173783,27.2563 157.742421,25.1790635 159.005507,23.5895894 C159.370722,23.5895894 159.574563,23.7533901 159.61703,24.1210319 C158.515318,26.3620691 154.808567,29.7023915 152.690077,29.7023915 C151.834673,29.7023915 151.384525,29.0508284 151.384525,28.3992654 C151.384525,27.9115031 151.510712,27.2587267 151.917181,26.0769344 L153.346494,22.0437954 L153.17784,22.0037552 C150.367747,25.7517596 147.312559,29.7036048 143.361927,29.7036048 C141.773666,29.7036048 140.915835,28.4004787 140.915835,26.7721777 C140.915835,23.8783641 143.114406,19.0298612 146.335821,16.1384743 C149.105874,13.6523426 151.674513,12.5118039 153.627989,12.5118039 C154.281978,12.5118039 155.25629,12.9182724 155.706438,13.7748898 L158.639079,5.37979693 Z M150.451467,15.4844845 C148.820739,16.9914516 145.889312,20.8620032 144.626226,23.4270019 C143.36314,26.0344676 143.36314,26.769751 143.36314,27.2963402 C143.36314,27.7853158 143.768395,28.1529575 144.136037,28.1529575 C144.74756,28.1529575 146.82601,27.4201007 149.63853,24.5275005 C152.813838,21.2684718 153.994417,18.8235936 154.60594,16.6650634 C155.096129,14.9542554 154.5659,13.7312096 153.549122,13.7312096 C152.60757,13.7299963 151.510712,14.5041066 150.451467,15.4844845 Z M122.537389,11.5738928 C123.231419,11.2462912 124.290664,11.6515465 124.533332,12.182989 C123.924235,13.6899561 120.381285,22.6929318 119.075732,26.3996826 C118.834278,27.0924992 119.035692,27.3375937 119.36208,27.3375937 C120.051257,27.3375937 121.234263,26.6459904 123.556594,24.6087942 C123.838088,24.6087942 124.128076,24.8114218 124.128076,25.1390233 C122.419695,27.4213141 119.523455,29.7011782 117.283631,29.7011782 C116.348146,29.7011782 116.100625,28.9258545 116.100625,28.601893 C116.100625,28.3167583 116.183132,27.9491166 116.508307,27.0124188 L117.851473,23.3457082 L117.727713,23.3068814 C114.836326,26.8910849 110.68428,29.7023915 108.767204,29.7023915 C107.629092,29.7023915 106.975102,28.5606394 106.975102,27.4225274 C106.975102,26.4846163 107.870546,23.2243743 110.560519,19.5176235 C112.515208,16.8288642 114.264843,15.1993498 115.935611,14.2626521 C117.526299,13.3659945 118.54429,13.0796465 119.603535,13.0796465 C120.04883,13.0796465 120.333965,13.2021938 120.580273,13.3235277 C120.744074,13.4060347 121.191796,13.7724631 121.39321,14.1813584 L122.537389,11.5738928 Z M115.449062,16.216128 C112.84281,18.5384589 110.356678,23.8759374 110.356678,26.7685377 C110.356678,27.2550866 110.602986,27.5414346 110.968201,27.5414346 C111.375883,27.5414346 112.598929,27.0112055 114.92126,24.8939288 C118.016487,22.0001152 119.727296,18.4984187 120.381285,16.0935807 C120.094937,15.3194704 119.399694,14.6266538 118.340449,14.6266538 C117.361284,14.6278672 116.709721,15.0755893 115.449062,16.216128 Z M74.949018,17.6430147 C74.8276841,19.8828386 73.6483185,23.7946437 70.633171,26.8898716 C68.1094257,29.4961239 65.9072154,29.6999648 64.8055035,29.6999648 C62.1980379,29.6999648 60.4896565,27.7853158 60.734751,24.2811926 C60.8985518,21.7562341 62.4055189,17.8056021 65.1731452,15.1556696 C67.2916352,13.1184734 69.1262039,12.5081638 70.7945451,12.5081638 C73.6907854,12.5093772 75.1152454,14.670334 74.949018,17.6430147 Z M67.5367297,15.6883255 C65.1743586,18.8636338 63.5885244,23.7121366 63.4659772,25.8730935 C63.3834701,27.2975535 63.9537395,28.4781324 65.1318917,28.4781324 C66.0321893,28.4781324 67.0513941,28.1129173 68.3520935,26.3608558 C70.142982,23.9596578 72.061271,18.5797124 72.1413514,16.4211823 C72.1789649,15.156883 71.9375104,13.7312096 70.5106237,13.7312096 C69.6976866,13.7299963 68.7209486,14.0964247 67.5367297,15.6883255 Z" id="Logo" stroke="none" fill="#3391FF" fill-rule="evenodd"></path>
</svg>