<svg style="width:14px; height:18px;" viewBox="3 1 14 18" version="1.1" xmlns="http://www.w3.org/2000/svg" xmlns:xlink="http://www.w3.org/1999/xlink">
    <!-- Generator: Sketch 41.1 (35376) - http://www.bohemiancoding.com/sketch -->
    <desc>Created with Sketch.</desc>
    <defs></defs>
    <path d="M11.22,10.22 C11.366,10.073 11.543,10 11.75,10 C11.956,10 12.133,10.073 12.28,10.22 C12.427,10.366 12.5,10.543 12.5,10.75 L12.5,15.25 C12.5,15.456 12.427,15.633 12.28,15.78 C12.133,15.927 11.956,16 11.75,16 C11.543,16 11.366,15.927 11.22,15.78 C11.073,15.633 11,15.456 11,15.25 L11,10.75 C11,10.543 11.073,10.366 11.22,10.22 L11.22,10.22 Z M11.7,2.5 L8.3,2.5 C8.1,2.5 8,2.6 8,2.8 L8,3.7 C8,3.9 8.1,4 8.3,4 L11.7,4 C11.9,4 12,3.9 12,3.7 L12,2.8 C12,2.6 11.9,2.5 11.7,2.5 L11.7,2.5 Z M7.72,10.22 C7.866,10.073 8.043,10 8.25,10 C8.456,10 8.633,10.073 8.78,10.22 C8.927,10.366 9,10.543 9,10.75 L9,15.25 C9,15.456 8.927,15.633 8.78,15.78 C8.633,15.927 8.456,16 8.25,16 C8.043,16 7.866,15.927 7.72,15.78 C7.573,15.633 7.5,15.456 7.5,15.25 L7.5,10.75 C7.5,10.543 7.573,10.366 7.72,10.22 L7.72,10.22 Z M14.5,8.5 L5.5,8.5 L5.5,17.25 C5.5,17.323 5.523,17.383 5.57,17.43 C5.616,17.476 5.677,17.5 5.75,17.5 L14.25,17.5 C14.323,17.5 14.383,17.476 14.43,17.43 C14.476,17.383 14.5,17.323 14.5,17.25 L14.5,8.5 Z M15.25,5.5 L4.75,5.5 C4.677,5.5 4.616,5.523 4.57,5.57 C4.523,5.616 4.5,5.677 4.5,5.75 L4.5,7 L15.5,7 L15.5,5.75 C15.5,5.677 15.476,5.616 15.43,5.57 C15.383,5.523 15.323,5.5 15.25,5.5 L15.25,5.5 Z M11.75,1 C12.236,1 12.65,1.17 12.99,1.51 C13.33,1.85 13.5,2.263 13.5,2.75 L13.5,3.7 C13.5,3.9 13.6,4 13.8,4 L15.25,4 C15.736,4 16.15,4.17 16.49,4.51 C16.83,4.85 17,5.263 17,5.75 L17,8.2 C17,8.4 16.9,8.5 16.7,8.5 L16,8.5 L16,17.25 C16,17.737 15.83,18.15 15.49,18.49 C15.15,18.83 14.736,19 14.25,19 L5.75,19 C5.263,19 4.85,18.83 4.51,18.49 C4.17,18.15 4,17.737 4,17.25 L4,8.5 L3.3,8.5 C3.1,8.5 3,8.4 3,8.2 L3,5.75 C3,5.263 3.17,4.85 3.51,4.51 C3.85,4.17 4.263,4 4.75,4 L6.2,4 C6.4,4 6.5,3.9 6.5,3.7 L6.5,2.75 C6.5,2.263 6.67,1.85 7.01,1.51 C7.35,1.17 7.763,1 8.25,1 L11.75,1 Z" id="trash" stroke="none" fill="#221F20" fill-rule="evenodd"></path>
</svg>